/* XPM */
static char * exitportal_close_xpm[] = {
"48 48 661 2",
"  	c #336233",
". 	c #346134",
"+ 	c #346332",
"@ 	c #366532",
"# 	c #3C6D35",
"$ 	c #3A6935",
"% 	c #315A30",
"& 	c #325D32",
"* 	c #366436",
"= 	c #346034",
"- 	c #376336",
"; 	c #356134",
"> 	c #2F592F",
", 	c #325F31",
"' 	c #356734",
") 	c #356634",
"! 	c #3A6C37",
"~ 	c #396C36",
"{ 	c #396A37",
"] 	c #346234",
"^ 	c #336334",
"/ 	c #305F31",
"( 	c #315F31",
"_ 	c #305E30",
": 	c #316131",
"< 	c #356832",
"[ 	c #386833",
"} 	c #3D6D36",
"| 	c #386735",
"1 	c #336132",
"2 	c #3A6C36",
"3 	c #386A35",
"4 	c #346634",
"5 	c #336534",
"6 	c #356736",
"7 	c #346133",
"8 	c #335D32",
"9 	c #2F5A31",
"0 	c #2E5A30",
"a 	c #2E5A31",
"b 	c #2E5B31",
"c 	c #326233",
"d 	c #306333",
"e 	c #316433",
"f 	c #326433",
"g 	c #305C31",
"h 	c #346534",
"i 	c #356635",
"j 	c #3D7238",
"k 	c #3D7038",
"l 	c #376535",
"m 	c #315834",
"n 	c #315A32",
"o 	c #356235",
"p 	c #335C32",
"q 	c #315930",
"r 	c #30592F",
"s 	c #346432",
"t 	c #366734",
"u 	c #396B35",
"v 	c #3A6D36",
"w 	c #396A36",
"x 	c #346032",
"y 	c #366437",
"z 	c #336033",
"A 	c #315F32",
"B 	c #2F5C30",
"C 	c #2D5A2F",
"D 	c #2E5B2F",
"E 	c #356733",
"F 	c #386934",
"G 	c #417639",
"H 	c #3F7338",
"I 	c #3A6C35",
"J 	c #3C6E36",
"K 	c #3F7538",
"L 	c #407739",
"M 	c #366934",
"N 	c #366836",
"O 	c #356335",
"P 	c #325B32",
"Q 	c #2E582F",
"R 	c #2B542F",
"S 	c #2E5930",
"T 	c #2F5C31",
"U 	c #305F32",
"V 	c #2F5E31",
"W 	c #305E32",
"X 	c #325F32",
"Y 	c #315C31",
"Z 	c #000000",
"` 	c #2F5E32",
" .	c #2E5C31",
"..	c #305B32",
"+.	c #356337",
"@.	c #010101",
"#.	c #673AB7",
"$.	c #2C5830",
"%.	c #2F5731",
"&.	c #325C34",
"*.	c #2C5630",
"=.	c #2B532F",
"-.	c #2C542E",
";.	c #2E5730",
">.	c #2E5631",
",.	c #2F5631",
"'.	c #2B502D",
").	c #2A4F2D",
"!.	c #325A32",
"~.	c #305631",
"{.	c #2A4E2C",
"].	c #2B502C",
"^.	c #365F34",
"/.	c #2E552F",
"(.	c #305A31",
"_.	c #2D572F",
":.	c #386135",
"<.	c #345E34",
"[.	c #325C33",
"}.	c #386537",
"|.	c #356636",
"1.	c #316233",
"2.	c #2F5D32",
"3.	c #346333",
"4.	c #336335",
"5.	c #336636",
"6.	c #2F5F32",
"7.	c #305A30",
"8.	c #325B31",
"9.	c #366633",
"0.	c #346031",
"a.	c #396634",
"b.	c #3E6938",
"c.	c #407038",
"d.	c #3D6F36",
"e.	c #40753A",
"f.	c #3C6F37",
"g.	c #386534",
"h.	c #376333",
"i.	c #355F31",
"j.	c #366936",
"k.	c #336434",
"l.	c #3A6A36",
"m.	c #356735",
"n.	c #356836",
"o.	c #326334",
"p.	c #2D582F",
"q.	c #2F5B30",
"r.	c #326032",
"s.	c #315D31",
"t.	c #2E582E",
"u.	c #325D31",
"v.	c #325A2F",
"w.	c #406E37",
"x.	c #447339",
"y.	c #407239",
"z.	c #3D7037",
"A.	c #3B6F37",
"B.	c #3B6E36",
"C.	c #386734",
"D.	c #346033",
"E.	c #325A30",
"F.	c #376835",
"G.	c #326333",
"H.	c #2F5D31",
"I.	c #366634",
"J.	c #386A37",
"K.	c #386C37",
"L.	c #386A38",
"M.	c #2F5A30",
"N.	c #2F5A2F",
"O.	c #396636",
"P.	c #2D552E",
"Q.	c #305A2E",
"R.	c #34602F",
"S.	c #437137",
"T.	c #417239",
"U.	c #386834",
"V.	c #386634",
"W.	c #366334",
"X.	c #356032",
"Y.	c #335E31",
"Z.	c #316133",
"`.	c #2D5B31",
" +	c #2D5A30",
".+	c #386835",
"++	c #396837",
"@+	c #3A6A38",
"#+	c #376637",
"$+	c #346135",
"%+	c #335F34",
"&+	c #366534",
"*+	c #3C6937",
"=+	c #3B6836",
"-+	c #345F31",
";+	c #30582E",
">+	c #376431",
",+	c #406D37",
"'+	c #437037",
")+	c #3E7237",
"!+	c #3A6A35",
"~+	c #386533",
"{+	c #3D6C36",
"]+	c #3A6835",
"^+	c #3C6B36",
"/+	c #2D5B30",
"(+	c #28512C",
"_+	c #2A552E",
":+	c #3A6936",
"<+	c #396437",
"[+	c #396637",
"}+	c #315831",
"|+	c #305831",
"1+	c #315932",
"2+	c #3D6E37",
"3+	c #447439",
"4+	c #3A6635",
"5+	c #32572F",
"6+	c #376234",
"7+	c #3C6834",
"8+	c #3E6D36",
"9+	c #3F7137",
"0+	c #3B6A34",
"a+	c #386532",
"b+	c #406F37",
"c+	c #427239",
"d+	c #437339",
"e+	c #27502B",
"f+	c #254C2A",
"g+	c #264D2B",
"h+	c #2A562E",
"i+	c #3B6938",
"j+	c #3A6637",
"k+	c #3A6638",
"l+	c #305730",
"m+	c #2A4A2C",
"n+	c #2D5530",
"o+	c #325D33",
"p+	c #3D6F37",
"q+	c #42753A",
"r+	c #3F6D37",
"s+	c #396535",
"t+	c #345E32",
"u+	c #376432",
"v+	c #3C6D36",
"w+	c #3B6D35",
"x+	c #386933",
"y+	c #386733",
"z+	c #3D6B34",
"A+	c #437338",
"B+	c #27522B",
"C+	c #2A562D",
"D+	c #39613F",
"E+	c #386736",
"F+	c #386536",
"G+	c #386437",
"H+	c #2F5430",
"I+	c #2B4E2D",
"J+	c #2D5630",
"K+	c #335F33",
"L+	c #3E6E36",
"M+	c #3B6A36",
"N+	c #366433",
"O+	c #376433",
"P+	c #335C30",
"Q+	c #3B6834",
"R+	c #3A6833",
"S+	c #365F31",
"T+	c #365E31",
"U+	c #426F38",
"V+	c #48763B",
"W+	c #2D5C30",
"X+	c #306136",
"Y+	c #43723E",
"Z+	c #457639",
"`+	c #356034",
" @	c #366336",
".@	c #346035",
"+@	c #2F5730",
"@@	c #294B2C",
"#@	c #2C532D",
"$@	c #335D31",
"%@	c #366332",
"&@	c #396A34",
"*@	c #3C6E37",
"=@	c #3B6B36",
"-@	c #386433",
";@	c #345D2F",
">@	c #396232",
",@	c #3B6032",
"'@	c #406435",
")@	c #3C6033",
"!@	c #426938",
"~@	c #426838",
"{@	c #376638",
"]@	c #48793B",
"^@	c #356435",
"/@	c #366536",
"(@	c #346235",
"_@	c #2B522C",
":@	c #2E572E",
"<@	c #305C2F",
"[@	c #305A2F",
"}@	c #336030",
"|@	c #3B6A35",
"1@	c #3C6935",
"2@	c #3C6735",
"3@	c #3F6837",
"4@	c #426A37",
"5@	c #476E39",
"6@	c #466D38",
"7@	c #47723A",
"8@	c #436938",
"9@	c #396A38",
"0@	c #4A7B3C",
"a@	c #4A7C3C",
"b@	c #346233",
"c@	c #346232",
"d@	c #2B512C",
"e@	c #2E592D",
"f@	c #315E2F",
"g@	c #346132",
"h@	c #386632",
"i@	c #3D6E35",
"j@	c #426F36",
"k@	c #49793A",
"l@	c #48763A",
"m@	c #48753A",
"n@	c #48723A",
"o@	c #4B763C",
"p@	c #4C773C",
"q@	c #456F39",
"r@	c #3B6A38",
"s@	c #4B7C3C",
"t@	c #4A7A3B",
"u@	c #477639",
"v@	c #376834",
"w@	c #376935",
"x@	c #356432",
"y@	c #325E31",
"z@	c #305C30",
"A@	c #2F5B2E",
"B@	c #2C552D",
"C@	c #2D572E",
"D@	c #3A6A34",
"E@	c #457337",
"F@	c #4E7E3D",
"G@	c #4D7C3D",
"H@	c #4E7A3F",
"I@	c #4A743B",
"J@	c #4B753B",
"K@	c #49763B",
"L@	c #447539",
"M@	c #447037",
"N@	c #3E6933",
"O@	c #386B34",
"P@	c #346431",
"Q@	c #2E592F",
"R@	c #2D592E",
"S@	c #2D592F",
"T@	c #326033",
"U@	c #2E542D",
"V@	c #356030",
"W@	c #3D6A34",
"X@	c #457238",
"Y@	c #4D783D",
"Z@	c #49723A",
"`@	c #477239",
" #	c #487639",
".#	c #487739",
"+#	c #3C6433",
"@#	c #3B6232",
"##	c #356731",
"$#	c #346731",
"%#	c #396C37",
"&#	c #315E31",
"*#	c #2F562E",
"=#	c #335A2F",
"-#	c #335B30",
";#	c #396532",
">#	c #3D6935",
",#	c #436E37",
"'#	c #426937",
")#	c #457039",
"!#	c #447138",
"~#	c #437237",
"{#	c #467339",
"]#	c #3C6434",
"^#	c #3C6233",
"/#	c #426D36",
"(#	c #2F5E2E",
"_#	c #3A6B37",
":#	c #376434",
"<#	c #335E32",
"[#	c #305B31",
"}#	c #305E31",
"|#	c #326132",
"1#	c #345C32",
"2#	c #366131",
"3#	c #3A6232",
"4#	c #385F31",
"5#	c #3D6434",
"6#	c #3E6435",
"7#	c #4A783A",
"8#	c #4A793B",
"9#	c #336633",
"0#	c #386C36",
"a#	c #376734",
"b#	c #305930",
"c#	c #2F5B31",
"d#	c #346735",
"e#	c #346433",
"f#	c #336133",
"g#	c #335A31",
"h#	c #325830",
"i#	c #345B31",
"j#	c #31592F",
"k#	c #336032",
"l#	c #325C31",
"m#	c #416836",
"n#	c #446C38",
"o#	c #477339",
"p#	c #457139",
"q#	c #346633",
"r#	c #3A6F38",
"s#	c #366533",
"t#	c #2E5830",
"u#	c #2B552E",
"v#	c #2B522D",
"w#	c #2B532E",
"x#	c #305D31",
"y#	c #3A6A37",
"z#	c #345C31",
"A#	c #325A31",
"B#	c #376232",
"C#	c #366133",
"D#	c #376533",
"E#	c #335F31",
"F#	c #3E6536",
"G#	c #406B38",
"H#	c #396D37",
"I#	c #2F5931",
"J#	c #2A522D",
"K#	c #29502B",
"L#	c #274D2B",
"M#	c #2B532D",
"N#	c #2F5B2F",
"O#	c #396936",
"P#	c #376235",
"Q#	c #355E32",
"R#	c #325931",
"S#	c #335D33",
"T#	c #3B6835",
"U#	c #3A6534",
"V#	c #3D6536",
"W#	c #3F6937",
"X#	c #3B6635",
"Y#	c #417036",
"Z#	c #3C7439",
"`#	c #2D5831",
" $	c #2C552E",
".$	c #284F2C",
"+$	c #2A522C",
"@$	c #346434",
"#$	c #366535",
"$$	c #366134",
"%$	c #335931",
"&$	c #345C33",
"*$	c #437238",
"=$	c #417038",
"-$	c #345D30",
";$	c #396435",
">$	c #366333",
",$	c #3A6334",
"'$	c #376032",
")$	c #366232",
"!$	c #41783C",
"~$	c #2E5931",
"{$	c #2C562E",
"]$	c #2B542D",
"^$	c #2D5930",
"/$	c #2E5A2F",
"($	c #315D32",
"_$	c #325E32",
":$	c #345F34",
"<$	c #325831",
"[$	c #2F552F",
"}$	c #2F562F",
"|$	c #3D6A36",
"1$	c #457339",
"2$	c #376133",
"3$	c #386334",
"4$	c #336131",
"5$	c #41783B",
"6$	c #3E7539",
"7$	c #396D36",
"8$	c #2C592E",
"9$	c #2C582E",
"0$	c #355F33",
"a$	c #355F32",
"b$	c #416F3A",
"c$	c #44783B",
"d$	c #3B6B35",
"e$	c #356033",
"f$	c #356133",
"g$	c #325B2F",
"h$	c #315B30",
"i$	c #3E7739",
"j$	c #3F783A",
"k$	c #3B7237",
"l$	c #366A35",
"m$	c #2F5F31",
"n$	c #306332",
"o$	c #316132",
"p$	c #365D32",
"q$	c #30542F",
"r$	c #3E6C35",
"s$	c #427339",
"t$	c #3D6D35",
"u$	c #325F30",
"v$	c #305B2F",
"w$	c #3B7137",
"x$	c #386D35",
"y$	c #356A35",
"z$	c #336935",
"A$	c #2F6332",
"B$	c #2F6031",
"C$	c #316232",
"D$	c #30562F",
"E$	c #30552E",
"F$	c #2F552D",
"G$	c #3A6934",
"H$	c #3F6F36",
"I$	c #3C6C35",
"J$	c #356234",
"K$	c #3F7639",
"L$	c #3B6F36",
"M$	c #376C35",
"N$	c #346934",
"O$	c #326735",
"P$	c #306734",
"Q$	c #2E5D31",
"R$	c #2D5B2F",
"S$	c #2C582F",
"T$	c #315B31",
"U$	c #335C31",
"V$	c #325930",
"W$	c #2F572D",
"X$	c #2F582F",
"Y$	c #30582F",
"Z$	c #356331",
"`$	c #396934",
" %	c #447538",
".%	c #437337",
"+%	c #335E33",
"@%	c #325C30",
"#%	c #356632",
"$%	c #336733",
"%%	c #2E5C2F",
"&%	c #2F6132",
"*%	c #2F6232",
"=%	c #2E5F32",
"-%	c #2E572F",
";%	c #315A2F",
">%	c #355B3B",
",%	c #416B3A",
"'%	c #3F6F37",
")%	c #3C6B35",
"!%	c #3F6D39",
"~%	c #427439",
"{%	c #3F7037",
"]%	c #3D6C37",
"^%	c #3B6936",
"/%	c #305630",
"(%	c #356232",
"_%	c #305B2E",
":%	c #356332",
"<%	c #336332",
"[%	c #306132",
"}%	c #2A502D",
"|%	c #2C532E",
"1%	c #2A512E",
"2%	c #3E683D",
"3%	c #436F3D",
"4%	c #436F38",
"5%	c #3E6B36",
"6%	c #3D6E36",
"7%	c #407139",
"8%	c #3D6D37",
"9%	c #2F572E",
"0%	c #396635",
"a%	c #396835",
"b%	c #3A6B35",
"c%	c #336136",
"d%	c #3B6B3A",
"e%	c #3E6C36",
"f%	c #3B6636",
"g%	c #3D6837",
"h%	c #3D6A37",
"i%	c #3D6C38",
"j%	c #3E6E38",
"k%	c #3E6E37",
"l%	c #3B6837",
"m%	c #335B32",
"n%	c #315730",
"o%	c #315931",
"p%	c #386434",
"q%	c #2D522E",
"r%	c #355D32",
"s%	c #345B32",
"t%	c #355E33",
"u%	c #366033",
"v%	c #365E33",
"w%	c #3A6836",
"x%	c #366234",
"y%	c #345E33",
"z%	c #376737",
"A%	c #386937",
"B%	c #356132",
"C%	c #3C7038",
"D%	c #366935",
"E%	c #386C35",
"F%	c #2D5A2E",
"G%	c #2F5D2F",
"H%	c #335B31",
"I%	c #356135",
"J%	c #386636",
"K%	c #305D30",
"L%	c #336031",
"M%	c #305C32",
"N%	c #2F5D30",
"O%	c #306232",
"P%	c #326232",
"Q%	c #2E5D30",
"R%	c #306131",
"S%	c #2E5C30",
"T%	c #356936",
"U%	c #356837",
"V%	c #316032",
"W%	c #2B582E",
"X%	c #2C572F",
"Y%	c #306031",
"Z%	c #316033",
"`%	c #346535",
" &	c #396935",
".&	c #315A31",
"+&	c #366335",
"@&	c #3A6937",
"#&	c #386737",
"$&	c #366835",
"%&	c #366834",
"&&	c #366735",
"*&	c #326131",
"=&	c #396B34",
"-&	c #366A34",
";&	c #336232",
">&	c #356835",
",&	c #2E5B30",
"'&	c #326534",
")&	c #316231",
"!&	c #336634",
"  . + @ # $ % & * = - ; > , ' ) ! ~ { ] . ^ / ( _ : < [ } | 1 2 3 4 5 6 6 7 8 9 0 0 a b c d e f ",
"g h i j k l m n o p q r r s t u v w x y z A B C D / E F G H I J K L M ^ N O = P Q R S T T U V W ",
"X Y Z Z Z Z Z Z Z Z Z Z Z Z Z Z Z Z Z Z Z Z Z Z Z Z Z Z Z Z Z Z Z Z Z Z Z Z Z Z Z Z Z Z Z Z `  .",
"..+.Z Z @.#.Z Z @.@.Z Z Z Z Z #.#.Z Z @.@.Z Z Z Z Z #.#.Z Z @.@.Z Z Z Z Z #.#.Z @.@.Z Z Z Z a $.",
"%.&.Z Z Z Z Z Z #.#.@.@.Z Z Z Z Z Z Z #.#.@.@.Z Z Z Z Z Z Z #.@.@.@.Z Z Z Z Z Z @.#.Z @.@.Z *.=.",
"-.;.Z Z Z Z Z Z Z Z @.#.Z Z Z Z Z Z Z Z Z #.#.Z Z Z Z Z Z Z Z Z #.#.Z Z Z Z Z Z Z Z Z #.#.Z >.,.",
"'.).Z Z @.@.@.@.Z @.@.Z Z Z Z @.@.@.Z Z @.@.Z Z Z Z @.@.@.Z Z @.@.Z Z Z Z @.@.@.Z Z @.@.Z Z !.~.",
"{.].Z @.#.#.#.@.Z #.#.Z Z Z @.#.#.#.Z Z #.#.Z Z Z @.#.#.#.Z Z #.#.Z Z Z @.#.#.#.Z Z #.@.Z Z ^./.",
"(._.Z #.#.Z Z Z @.@.Z Z Z Z #.#.Z Z Z @.@.Z Z Z Z #.#.Z Z Z @.@.Z Z Z Z #.@.Z Z @.@.Z Z Z Z :.<.",
"[.(.Z Z Z Z Z Z #.#.Z Z Z Z Z Z Z Z Z #.#.Z Z Z Z Z Z Z Z Z #.@.Z Z Z Z Z Z Z Z @.#.Z Z Z Z }.= ",
"9   Z Z Z Z Z Z Z Z Z Z Z @.@.@.@.@.@.@.@.@.@.@.@.@.@.@.@.@.@.@.@.@.@.Z Z Z Z Z Z Z Z Z Z Z |.z ",
"1.2.Z Z @.@.Z Z Z Z Z Z Z 3.4 4.5.4 6.T b g 7.8.9.0.a.b.c.d.e.f.g.h.i.Z Z @.@.Z Z Z Z Z Z Z j.k.",
"c  .Z Z @.#.Z Z @.@.Z Z Z l.m.n.k.o.B p.q.r.s.t.u.v.w.x.y.z.A.B.C.D.E.Z Z #.#.Z @.@.Z Z Z Z F.G.",
"H.H.Z Z Z Z Z Z #.#.@.@.Z I.J.K.L.k.  M.N.O.x P.Q.R.S.x.T.$ U.V.W.X.Y.Z Z Z Z Z @.#.Z @.@.Z i Z.",
"`. +Z Z Z Z Z Z Z Z @.#.Z .+++@+#+$+%+..&+*+=+-+;+>+,+'+w.)+!+~+{+]+^+Z Z Z Z Z Z Z Z #.#.Z S /+",
"(+_+Z Z @.#.#.@.Z @.#.Z Z :+<+[+<.}+|+1+V.2+3+4+5+6+h.7+8+9+0+a+b+c+d+Z Z #.#.#.Z Z #.@.Z Z e+f+",
"g+h+Z @.#.#.#.@.Z #.#.Z Z i+j+k+l+m+n+o+p+q+r+s+X.q t+u+v+w+x+y+z+A+b+Z #.#.#.#.Z Z #.@.Z Z B+C+",
"D+7 Z #.#.Z Z Z #.#.Z Z Z E+F+G+H+I+J+K+:+c+L+M+!+N+O+P+Q+R+y+S+T+U+V+Z #.@.Z Z @.#.Z Z Z Z W+X+",
"Y+Z+Z Z Z Z Z Z #.#.Z Z Z `+ @.@+@@@#@Q $@%@y+&@*@=@!+-@;@>@,@'@)@!@~@Z Z Z Z Z @.#.Z Z Z Z h {@",
"Z+]@Z Z Z Z Z Z Z Z Z Z Z ^@/@(@(._._@:@<@[@}@U.=@]+|@1@2@3@4@5@6@7@8@Z Z Z Z Z Z Z Z Z Z Z 9@2+",
"0@a@Z Z @.#.Z Z Z Z Z Z Z A b@1 c@& d@e@f@t.<@g@O+h@i@j@k@l@m@n@o@p@q@Z Z #.@.Z Z Z Z Z Z Z r@s@",
"t@u@Z Z @.#.Z Z #.#.Z Z Z v@F.w@t x@y@z@A@B@C@r &+X.D@E@F@G@H@p@I@J@K@Z Z #.#.Z @.#.Z Z Z Z L@u@",
"M@N@Z Z Z Z Z Z #.#.@.#.Z 2 O@P@s + 3.Q@R@S@g T@u.U@V@W@X@m@p@Y@Z@`@ #Z Z Z Z Z @.#.Z #.@.Z t@.#",
"+#@#Z Z Z Z Z Z Z Z @.#.Z ##O@$#%#I.1 p.s.  &#3.s.*#=#-#;#>#,#'#)#!#~#Z Z Z Z Z Z Z Z #.@.Z {#]#",
"^#/#Z Z @.#.#.@.Z @.#.Z Z (#v A._#:#<#[#q.B }#/ |#7.1#*#X.2#3#4#4+-@[ Z Z #.#.#.Z Z #.@.Z Z 5#6#",
"7#8#Z #.#.#.#.@.Z @.#.Z Z 9#0#a#7 b#-.q.c#0 G.d#e#f#g#8 <#p h#i#j#k#l#Z #.#.#.@.Z Z #.@.Z Z m#n#",
"o#p#Z @.#.Z Z Z #.#.Z Z Z q#r#s#7.t#u#v#w#0 x#n.J.y#z#A#A#8.B#C#D#E#M.Z #.@.Z Z @.#.Z Z Z Z F#4@",
"G#x.Z Z Z Z Z Z #.#.Z Z Z H#K.f#I#J+J#K#L#M#N#1 O#P#Q#R#S#P T#*+U#X.h.Z Z Z Z Z @.#.Z Z Z Z V#W#",
"X#Y#Z Z Z Z Z Z Z Z Z Z Z Z#A.x#`# $M#.$+$N#e#@$#$$$%$&$}+A#*$=$2#-$;$Z Z Z Z Z Z Z Z Z Z Z >$,$",
"'$)$Z Z @.#.Z Z Z Z Z Z Z !$H#] ~${$]$^$/$($e#_$l#<.:$<$[$}$|$1$2$B#-@Z Z #.#.Z Z Z Z Z Z Z Y 3$",
"t+4$Z Z @.#.Z Z #.#.Z Z Z 5$6$7$4 8$9$C c#q.b@D.W.0$<.<$h#a$g.b$c$w.d$Z Z #.@.Z @.#.Z Z Z Z e$f$",
"g$h$Z Z Z Z Z Z #.#.@.#.Z i$j$k$l$m$n$o$A A z <#p p$R#q$E.z#h.r$s$*$t$Z Z Z Z Z @.#.Z #.#.Z p u$",
"$@v$Z Z Z Z Z Z Z Z @.#.Z j$w$x$y$z$A$B$C$  & 8 p A#D$E$F$g$%@a+G$H$I$Z Z Z Z Z Z Z Z #.@.Z ; k#",
"J$x Z Z @.#.#.@.Z #.#.Z Z K$L$M$N$O$P$Q$R$S$T$U$V$W$X$Y$Z$`$># %.%H$|@Z Z #.#.#.Z Z #.@.Z Z +%& ",
"@%N+Z #.#.@.@.@.Z @.@.Z Z B.#%$%%%&%*%=%V ^$-%:@;%q >%,%'%)%!%~%{%]%^%Z #.#.@.@.Z Z @.@.Z Z /%}$",
";%(%Z @.@.Z Z Z #.#.Z Z Z (%_%:%<%[%[%z@C {$}%|%1%2%3%4%5%{+6%V.|@7%8%Z @.@.Z Z @.#.Z Z Z Z }+9%",
"1#0$Z Z Z Z Z Z @.@.Z Z Z p $@0%a%3.b%C.C@p.w#_.c%d%=$e%f%g%h%i%j%k%l%Z Z Z Z Z @.@.Z Z Z Z m%R#",
"t+V.Z Z Z Z Z Z Z Z Z Z Z @.@.@.@.@.@.@.@.@.@.@.@.@.@.@.@.@.@.@.@.@.@.Z Z Z Z Z Z Z Z Z Z Z n%o%",
"$$p%Z Z @.#.Z Z Z Z Z Z Z Z Z #.#.Z Z Z Z Z Z Z Z Z #.#.Z Z Z Z Z Z Z Z Z #.#.Z Z Z Z Z Z Z q%l+",
"`+r%Z Z @.@.Z Z #.#.Z Z Z Z Z @.@.Z Z #.#.Z Z Z Z Z @.@.Z Z #.@.Z Z Z Z Z @.@.Z @.#.Z Z Z Z s%t%",
"; u%Z Z Z Z Z Z @.@.@.#.Z Z Z Z Z Z Z @.@.#.#.Z Z Z Z Z Z Z @.@.#.#.Z Z Z Z Z Z @.@.Z #.#.Z t%v%",
".+w%Z Z Z Z Z Z Z Z @.@.Z Z Z Z Z Z Z Z Z @.@.Z Z Z Z Z Z Z Z Z @.@.Z Z Z Z Z Z Z Z Z @.@.Z x%y%",
"z%f$Z Z @.#.#.@.Z #.#.Z Z Z Z #.#.#.Z Z #.#.Z Z Z Z #.#.#.Z Z #.#.Z Z Z Z #.#.#.Z Z #.@.Z Z A%i ",
"t B%Z #.#.@.@.@.Z @.@.Z Z Z #.#.@.@.Z Z @.@.Z Z Z #.#.@.@.Z Z @.@.Z Z Z #.#.@.@.Z Z @.@.Z Z C%D%",
"4$C.Z @.@.Z Z Z #.#.Z Z Z Z @.@.Z Z Z #.#.Z Z Z Z @.@.Z Z Z #.@.Z Z Z Z @.@.Z Z @.#.Z Z Z Z E%F%",
"b@O+Z Z Z Z Z Z Z Z Z Z Z Z Z Z Z Z Z Z Z Z Z Z Z Z Z Z Z Z Z Z Z Z Z Z Z Z Z Z Z Z Z Z Z Z u G%",
"B N+D#Q#H%p [$I%A%! :+J%X K%, L%q.B b@M.& M%H.( N%: O%C$P%Q%R%S%c T%U%V%|#W%B+B+9$ +X% +C Y%M E ",
"Z%`%:+ &M+O+.&-%[.+&@&#&b#N#  e#$&%&&&z A x#x#K%&#*&<%=&-&D ;&<%B / h >&1.,&^$p.0 S ~$b H.'&)&!&"};
