/* XPM */
static char * exitportal_open_xpm[] = {
"48 48 296 2",
"  	c #336233",
". 	c #346134",
"+ 	c #346332",
"@ 	c #366532",
"# 	c #3C6D35",
"$ 	c #3A6935",
"% 	c #315A30",
"& 	c #325D32",
"* 	c #366436",
"= 	c #346034",
"- 	c #376336",
"; 	c #356134",
"> 	c #2F592F",
", 	c #325F31",
"' 	c #356734",
") 	c #356634",
"! 	c #3A6C37",
"~ 	c #396C36",
"{ 	c #396A37",
"] 	c #346234",
"^ 	c #336334",
"/ 	c #305F31",
"( 	c #315F31",
"_ 	c #305E30",
": 	c #316131",
"< 	c #356832",
"[ 	c #386833",
"} 	c #3D6D36",
"| 	c #386735",
"1 	c #336132",
"2 	c #3A6C36",
"3 	c #386A35",
"4 	c #346634",
"5 	c #336534",
"6 	c #356736",
"7 	c #346133",
"8 	c #335D32",
"9 	c #2F5A31",
"0 	c #2E5A30",
"a 	c #2E5A31",
"b 	c #2E5B31",
"c 	c #326233",
"d 	c #306333",
"e 	c #316433",
"f 	c #326433",
"g 	c #305C31",
"h 	c #346534",
"i 	c #356635",
"j 	c #3D7238",
"k 	c #3D7038",
"l 	c #376535",
"m 	c #315834",
"n 	c #315A32",
"o 	c #356235",
"p 	c #335C32",
"q 	c #315930",
"r 	c #30592F",
"s 	c #346432",
"t 	c #366734",
"u 	c #396B35",
"v 	c #3A6D36",
"w 	c #396A36",
"x 	c #346032",
"y 	c #366437",
"z 	c #336033",
"A 	c #315F32",
"B 	c #2F5C30",
"C 	c #2D5A2F",
"D 	c #2E5B2F",
"E 	c #356733",
"F 	c #386934",
"G 	c #417639",
"H 	c #3F7338",
"I 	c #3A6C35",
"J 	c #3C6E36",
"K 	c #3F7538",
"L 	c #407739",
"M 	c #366934",
"N 	c #366836",
"O 	c #356335",
"P 	c #325B32",
"Q 	c #2E582F",
"R 	c #2B542F",
"S 	c #2E5930",
"T 	c #2F5C31",
"U 	c #305F32",
"V 	c #2F5E31",
"W 	c #305E32",
"X 	c #325F32",
"Y 	c #315C31",
"Z 	c #000000",
"` 	c #2F5E32",
" .	c #2E5C31",
"..	c #305B32",
"+.	c #356337",
"@.	c #010101",
"#.	c #673AB7",
"$.	c #2C5830",
"%.	c #2F5731",
"&.	c #325C34",
"*.	c #2C5630",
"=.	c #2B532F",
"-.	c #2C542E",
";.	c #2E5730",
">.	c #2E5631",
",.	c #2F5631",
"'.	c #2B502D",
").	c #2A4F2D",
"!.	c #325A32",
"~.	c #305631",
"{.	c #2A4E2C",
"].	c #2B502C",
"^.	c #365F34",
"/.	c #2E552F",
"(.	c #305A31",
"_.	c #2D572F",
":.	c #386135",
"<.	c #345E34",
"[.	c #325C33",
"}.	c #386537",
"|.	c #356636",
"1.	c #316233",
"2.	c #2F5D32",
"3.	c #9C27B0",
"4.	c #366936",
"5.	c #336434",
"6.	c #376835",
"7.	c #326333",
"8.	c #2F5D31",
"9.	c #316133",
"0.	c #2D5B31",
"a.	c #2D5A30",
"b.	c #2D5B30",
"c.	c #28512C",
"d.	c #2A552E",
"e.	c #27502B",
"f.	c #254C2A",
"g.	c #264D2B",
"h.	c #2A562E",
"i.	c #27522B",
"j.	c #2A562D",
"k.	c #39613F",
"l.	c #2D5C30",
"m.	c #306136",
"n.	c #43723E",
"o.	c #457639",
"p.	c #376638",
"q.	c #48793B",
"r.	c #396A38",
"s.	c #3D6E37",
"t.	c #4A7B3C",
"u.	c #4A7C3C",
"v.	c #3B6A38",
"w.	c #4B7C3C",
"x.	c #4A7A3B",
"y.	c #477639",
"z.	c #447539",
"A.	c #447037",
"B.	c #3E6933",
"C.	c #487739",
"D.	c #3C6433",
"E.	c #3B6232",
"F.	c #467339",
"G.	c #3C6434",
"H.	c #3C6233",
"I.	c #426D36",
"J.	c #3D6434",
"K.	c #3E6435",
"L.	c #4A783A",
"M.	c #4A793B",
"N.	c #416836",
"O.	c #446C38",
"P.	c #477339",
"Q.	c #457139",
"R.	c #3E6536",
"S.	c #426A37",
"T.	c #406B38",
"U.	c #447339",
"V.	c #3D6536",
"W.	c #3F6937",
"X.	c #3B6635",
"Y.	c #417036",
"Z.	c #366333",
"`.	c #3A6334",
" +	c #376032",
".+	c #366232",
"++	c #386334",
"@+	c #345E32",
"#+	c #336131",
"$+	c #356033",
"%+	c #356133",
"&+	c #325B2F",
"*+	c #315B30",
"=+	c #325F30",
"-+	c #335D31",
";+	c #305B2F",
">+	c #336032",
",+	c #356234",
"'+	c #335E33",
")+	c #325C30",
"!+	c #366433",
"~+	c #305630",
"{+	c #2F562F",
"]+	c #315A2F",
"^+	c #356232",
"/+	c #315831",
"(+	c #2F572E",
"_+	c #345C32",
":+	c #355F33",
"<+	c #335B32",
"[+	c #325931",
"}+	c #386634",
"|+	c #315730",
"1+	c #315931",
"2+	c #366134",
"3+	c #386434",
"4+	c #2D522E",
"5+	c #305730",
"6+	c #356034",
"7+	c #355D32",
"8+	c #345B32",
"9+	c #355E33",
"0+	c #366033",
"a+	c #365E33",
"b+	c #386835",
"c+	c #3A6836",
"d+	c #366234",
"e+	c #345E33",
"f+	c #376737",
"g+	c #386937",
"h+	c #356132",
"i+	c #3C7038",
"j+	c #366935",
"k+	c #386734",
"l+	c #386C35",
"m+	c #2D5A2E",
"n+	c #346233",
"o+	c #376433",
"p+	c #2F5D2F",
"q+	c #376533",
"r+	c #355E32",
"s+	c #335B31",
"t+	c #2F552F",
"u+	c #356135",
"v+	c #3A6936",
"w+	c #386636",
"x+	c #305D30",
"y+	c #336031",
"z+	c #2F5B30",
"A+	c #2F5A30",
"B+	c #305C32",
"C+	c #2F5D30",
"D+	c #306232",
"E+	c #316232",
"F+	c #326232",
"G+	c #2E5D30",
"H+	c #306131",
"I+	c #2E5C30",
"J+	c #356936",
"K+	c #356837",
"L+	c #316032",
"M+	c #326132",
"N+	c #2B582E",
"O+	c #2C582E",
"P+	c #2C572F",
"Q+	c #306031",
"R+	c #316033",
"S+	c #346535",
"T+	c #396935",
"U+	c #3B6A36",
"V+	c #315A31",
"W+	c #2E572F",
"X+	c #366335",
"Y+	c #3A6937",
"Z+	c #386737",
"`+	c #305930",
" @	c #2F5B2F",
".@	c #346433",
"+@	c #366835",
"@@	c #366834",
"#@	c #366735",
"$@	c #305D31",
"%@	c #315E31",
"&@	c #326131",
"*@	c #336332",
"=@	c #396B34",
"-@	c #366A34",
";@	c #336232",
">@	c #356835",
",@	c #2E5B30",
"'@	c #2D5930",
")@	c #2D582F",
"!@	c #2E5931",
"~@	c #326534",
"{@	c #316231",
"]@	c #336634",
"  . + @ # $ % & * = - ; > , ' ) ! ~ { ] . ^ / ( _ : < [ } | 1 2 3 4 5 6 6 7 8 9 0 0 a b c d e f ",
"g h i j k l m n o p q r r s t u v w x y z A B C D / E F G H I J K L M ^ N O = P Q R S T T U V W ",
"X Y Z Z Z Z Z Z Z Z Z Z Z Z Z Z Z Z Z Z Z Z Z Z Z Z Z Z Z Z Z Z Z Z Z Z Z Z Z Z Z Z Z Z Z Z `  .",
"..+.Z Z @.#.Z Z @.@.Z Z Z Z Z #.#.Z Z @.@.Z Z Z Z Z #.#.Z Z @.@.Z Z Z Z Z #.#.Z @.@.Z Z Z Z a $.",
"%.&.Z Z Z Z Z Z #.#.@.@.Z Z Z Z Z Z Z #.#.@.@.Z Z Z Z Z Z Z #.@.@.@.Z Z Z Z Z Z @.#.Z @.@.Z *.=.",
"-.;.Z Z Z Z Z Z Z Z @.#.Z Z Z Z Z Z Z Z Z #.#.Z Z Z Z Z Z Z Z Z #.#.Z Z Z Z Z Z Z Z Z #.#.Z >.,.",
"'.).Z Z @.@.@.@.Z @.@.Z Z Z Z @.@.@.Z Z @.@.Z Z Z Z @.@.@.Z Z @.@.Z Z Z Z @.@.@.Z Z @.@.Z Z !.~.",
"{.].Z @.#.#.#.@.Z #.#.Z Z Z @.#.#.#.Z Z #.#.Z Z Z @.#.#.#.Z Z #.#.Z Z Z @.#.#.#.Z Z #.@.Z Z ^./.",
"(._.Z #.#.Z Z Z @.@.Z Z Z Z #.#.Z Z Z @.@.Z Z Z Z #.#.Z Z Z @.@.Z Z Z Z #.@.Z Z @.@.Z Z Z Z :.<.",
"[.(.Z Z Z Z Z Z #.#.Z Z Z Z Z Z Z Z Z #.#.Z Z Z Z Z Z Z Z Z #.@.Z Z Z Z Z Z Z Z @.#.Z Z Z Z }.= ",
"9   Z Z Z Z Z Z Z Z Z Z Z @.@.@.@.@.@.@.@.@.@.@.@.@.@.@.@.@.@.@.@.@.@.Z Z Z Z Z Z Z Z Z Z Z |.z ",
"1.2.Z Z @.@.Z Z Z Z Z Z Z 3.3.3.#.3.#.#.#.#.#.#.3.3.#.#.3.#.#.#.#.#.#.Z Z @.@.Z Z Z Z Z Z Z 4.5.",
"c  .Z Z @.#.Z Z @.@.Z Z Z 3.#.#.3.#.3.#.#.#.#.#.3.#.3.3.#.3.#.#.#.#.#.Z Z #.#.Z @.@.Z Z Z Z 6.7.",
"8.8.Z Z Z Z Z Z #.#.@.@.Z #.3.3.#.#.#.3.#.#.#.#.#.3.#.#.#.#.3.#.#.#.#.Z Z Z Z Z @.#.Z @.@.Z i 9.",
"0.a.Z Z Z Z Z Z Z Z @.#.Z 3.3.#.#.#.3.#.3.#.#.#.3.#.#.#.#.3.#.3.#.#.#.Z Z Z Z Z Z Z Z #.#.Z S b.",
"c.d.Z Z @.#.#.@.Z @.#.Z Z #.#.3.#.3.#.3.#.#.#.3.#.3.3.3.3.#.3.#.#.3.#.Z Z #.#.#.Z Z #.@.Z Z e.f.",
"g.h.Z @.#.#.#.@.Z #.#.Z Z #.#.#.3.#.3.#.#.3.3.#.#.#.#.3.#.3.#.#.3.#.#.Z #.#.#.#.Z Z #.@.Z Z i.j.",
"k.7 Z #.#.Z Z Z #.#.Z Z Z #.#.#.#.3.#.#.3.3.#.#.#.#.#.#.3.#.#.3.#.#.#.Z #.@.Z Z @.#.Z Z Z Z l.m.",
"n.o.Z Z Z Z Z Z #.#.Z Z Z #.#.#.#.#.#.#.3.3.#.#.#.#.#.#.#.#.#.3.#.#.#.Z Z Z Z Z @.#.Z Z Z Z h p.",
"o.q.Z Z Z Z Z Z Z Z Z Z Z #.#.#.#.#.#.#.#.#.#.#.#.#.#.#.#.#.#.3.#.#.#.Z Z Z Z Z Z Z Z Z Z Z r.s.",
"t.u.Z Z @.#.Z Z Z Z Z Z Z 3.3.3.#.3.#.#.#.#.#.#.3.3.3.3.3.#.#.#.#.#.#.Z Z #.@.Z Z Z Z Z Z Z v.w.",
"x.y.Z Z @.#.Z Z #.#.Z Z Z #.3.3.3.#.3.#.#.#.#.#.3.#.3.#.#.3.#.#.#.#.#.Z Z #.#.Z @.#.Z Z Z Z z.y.",
"A.B.Z Z Z Z Z Z #.#.@.#.Z #.3.#.#.#.#.3.3.#.#.#.#.3.#.#.#.#.3.#.#.#.#.Z Z Z Z Z @.#.Z #.@.Z x.C.",
"D.E.Z Z Z Z Z Z Z Z @.#.Z #.3.#.#.#.3.3.3.#.#.#.3.3.#.#.3.3.#.3.#.#.#.Z Z Z Z Z Z Z Z #.@.Z F.G.",
"H.I.Z Z @.#.#.@.Z @.#.Z Z #.#.3.3.#.3.3.#.#.3.#.#.#.3.3.3.3.#.#.#.3.#.Z Z #.#.#.Z Z #.@.Z Z J.K.",
"L.M.Z #.#.#.#.@.Z @.#.Z Z #.#.#.#.3.#.#.#.3.#.#.#.#.#.3.3.#.#.3.3.#.#.Z #.#.#.@.Z Z #.@.Z Z N.O.",
"P.Q.Z @.#.Z Z Z #.#.Z Z Z #.#.#.#.#.#.#.3.3.#.#.#.#.#.#.#.#.#.3.#.#.#.Z #.@.Z Z @.#.Z Z Z Z R.S.",
"T.U.Z Z Z Z Z Z #.#.Z Z Z #.#.#.#.#.#.#.3.3.#.#.#.#.#.#.#.#.#.3.#.#.#.Z Z Z Z Z @.#.Z Z Z Z V.W.",
"X.Y.Z Z Z Z Z Z Z Z Z Z Z #.3.#.#.3.#.#.#.#.#.#.3.3.#.#.3.#.#.#.#.#.#.Z Z Z Z Z Z Z Z Z Z Z Z.`.",
" +.+Z Z @.#.Z Z Z Z Z Z Z 3.3.3.3.#.3.#.#.#.#.#.3.3.3.3.#.3.#.#.#.#.#.Z Z #.#.Z Z Z Z Z Z Z Y ++",
"@+#+Z Z @.#.Z Z #.#.Z Z Z #.3.3.#.#.#.3.#.#.#.#.#.3.3.#.#.#.3.#.#.#.#.Z Z #.@.Z @.#.Z Z Z Z $+%+",
"&+*+Z Z Z Z Z Z #.#.@.#.Z #.3.#.#.#.3.#.3.#.#.#.3.#.#.#.#.3.#.3.#.#.#.Z Z Z Z Z @.#.Z #.#.Z p =+",
"-+;+Z Z Z Z Z Z Z Z @.#.Z #.3.#.#.3.#.3.3.#.#.3.#.3.#.#.3.#.3.#.#.#.#.Z Z Z Z Z Z Z Z #.@.Z ; >+",
",+x Z Z @.#.#.@.Z #.#.Z Z #.#.3.3.#.3.#.#.#.3.#.#.#.3.3.#.3.#.#.#.3.#.Z Z #.#.#.Z Z #.@.Z Z '+& ",
")+!+Z #.#.@.@.@.Z @.@.Z Z #.#.#.#.3.#.#.3.3.#.#.#.#.#.#.3.#.#.3.#.#.#.Z #.#.@.@.Z Z @.@.Z Z ~+{+",
"]+^+Z @.@.Z Z Z #.#.Z Z Z #.#.#.#.#.#.#.3.3.#.#.#.#.#.#.#.#.#.3.#.#.#.Z @.@.Z Z @.#.Z Z Z Z /+(+",
"_+:+Z Z Z Z Z Z @.@.Z Z Z #.#.#.#.#.#.#.3.3.#.#.#.#.#.#.#.#.#.3.#.#.#.Z Z Z Z Z @.@.Z Z Z Z <+[+",
"@+}+Z Z Z Z Z Z Z Z Z Z Z @.@.@.@.@.@.@.@.@.@.@.@.@.@.@.@.@.@.@.@.@.@.Z Z Z Z Z Z Z Z Z Z Z |+1+",
"2+3+Z Z @.#.Z Z Z Z Z Z Z Z Z #.#.Z Z Z Z Z Z Z Z Z #.#.Z Z Z Z Z Z Z Z Z #.#.Z Z Z Z Z Z Z 4+5+",
"6+7+Z Z @.@.Z Z #.#.Z Z Z Z Z @.@.Z Z #.#.Z Z Z Z Z @.@.Z Z #.@.Z Z Z Z Z @.@.Z @.#.Z Z Z Z 8+9+",
"; 0+Z Z Z Z Z Z @.@.@.#.Z Z Z Z Z Z Z @.@.#.#.Z Z Z Z Z Z Z @.@.#.#.Z Z Z Z Z Z @.@.Z #.#.Z 9+a+",
"b+c+Z Z Z Z Z Z Z Z @.@.Z Z Z Z Z Z Z Z Z @.@.Z Z Z Z Z Z Z Z Z @.@.Z Z Z Z Z Z Z Z Z @.@.Z d+e+",
"f+%+Z Z @.#.#.@.Z #.#.Z Z Z Z #.#.#.Z Z #.#.Z Z Z Z #.#.#.Z Z #.#.Z Z Z Z #.#.#.Z Z #.@.Z Z g+i ",
"t h+Z #.#.@.@.@.Z @.@.Z Z Z #.#.@.@.Z Z @.@.Z Z Z #.#.@.@.Z Z @.@.Z Z Z #.#.@.@.Z Z @.@.Z Z i+j+",
"#+k+Z @.@.Z Z Z #.#.Z Z Z Z @.@.Z Z Z #.#.Z Z Z Z @.@.Z Z Z #.@.Z Z Z Z @.@.Z Z @.#.Z Z Z Z l+m+",
"n+o+Z Z Z Z Z Z Z Z Z Z Z Z Z Z Z Z Z Z Z Z Z Z Z Z Z Z Z Z Z Z Z Z Z Z Z Z Z Z Z Z Z Z Z Z u p+",
"B !+q+r+s+p t+u+g+! v+w+X x+, y+z+B n+A+& B+8.( C+: D+E+F+G+H+I+c J+K+L+M+N+i.i.O+a.P+a.C Q+M E ",
"R+S+v+T+U+o+V+W+[.X+Y+Z+`+ @  .@+@@@#@z A $@$@x+%@&@*@=@-@D ;@*@B / h >@1.,@'@)@0 S !@b 8.~@{@]@"};
