/* XPM */
static char * Flint_xpm[] = {
"48 48 920 2",
"  	c #336233",
". 	c #346134",
"+ 	c #346332",
"@ 	c #366532",
"# 	c #3C6D35",
"$ 	c #3A6935",
"% 	c #315A30",
"& 	c #325D32",
"* 	c #366436",
"= 	c #346034",
"- 	c #376336",
"; 	c #356134",
"> 	c #2F592F",
", 	c #325F31",
"' 	c #356734",
") 	c #356634",
"! 	c #3A6C37",
"~ 	c #396C36",
"{ 	c #396A37",
"] 	c #346234",
"^ 	c #336334",
"/ 	c #305F31",
"( 	c #315F31",
"_ 	c #305E30",
": 	c #316131",
"< 	c #356832",
"[ 	c #386833",
"} 	c #3D6D36",
"| 	c #386735",
"1 	c #336132",
"2 	c #3A6C36",
"3 	c #386A35",
"4 	c #346634",
"5 	c #336534",
"6 	c #356736",
"7 	c #346133",
"8 	c #335D32",
"9 	c #2F5A31",
"0 	c #2E5A30",
"a 	c #2E5A31",
"b 	c #2E5B31",
"c 	c #326233",
"d 	c #306333",
"e 	c #316433",
"f 	c #326433",
"g 	c #305C31",
"h 	c #346534",
"i 	c #356635",
"j 	c #3D7238",
"k 	c #3D7038",
"l 	c #376535",
"m 	c #315834",
"n 	c #315A32",
"o 	c #356235",
"p 	c #335C32",
"q 	c #315930",
"r 	c #30592F",
"s 	c #346432",
"t 	c #366734",
"u 	c #396B35",
"v 	c #3A6D36",
"w 	c #396A36",
"x 	c #346032",
"y 	c #366437",
"z 	c #336033",
"A 	c #315F32",
"B 	c #2F5C30",
"C 	c #2D5A2F",
"D 	c #2E5B2F",
"E 	c #356733",
"F 	c #386934",
"G 	c #417639",
"H 	c #3F7338",
"I 	c #3A6C35",
"J 	c #3C6E36",
"K 	c #3F7538",
"L 	c #407739",
"M 	c #366934",
"N 	c #366836",
"O 	c #356335",
"P 	c #325B32",
"Q 	c #2E582F",
"R 	c #2B542F",
"S 	c #2E5930",
"T 	c #2F5C31",
"U 	c #305F32",
"V 	c #2F5E31",
"W 	c #305E32",
"X 	c #325F32",
"Y 	c #315C31",
"Z 	c #376736",
"` 	c #40763A",
" .	c #40753A",
"..	c #40743A",
"+.	c #34603B",
"@.	c #315631",
"#.	c #2B502D",
"$.	c #2F562E",
"%.	c #305B30",
"&.	c #305B2F",
"*.	c #346233",
"=.	c #3B6D36",
"-.	c #3D7037",
";.	c #3A6B36",
">.	c #376435",
",.	c #2F5A30",
"'.	c #2F5D30",
").	c #316132",
"!.	c #316332",
"~.	c #346732",
"{.	c #3A6F36",
"].	c #3E7237",
"^.	c #417538",
"/.	c #44783A",
"(.	c #407238",
"_.	c #407439",
":.	c #447B3B",
"<.	c #346435",
"[.	c #315E32",
"}.	c #325B31",
"|.	c #386337",
"1.	c #396437",
"2.	c #345F34",
"3.	c #2F5931",
"4.	c #2F5B31",
"5.	c #2F5E32",
"6.	c #2E5C31",
"7.	c #305B32",
"8.	c #356337",
"9.	c #386638",
"0.	c #3B6E38",
"a.	c #3D7338",
"b.	c #40773A",
"c.	c #3A6F39",
"d.	c #28502B",
"e.	c #2C582D",
"f.	c #356534",
"g.	c #474747",
"h.	c #305930",
"i.	c #2E592F",
"j.	c #2A532D",
"k.	c #2F5F31",
"l.	c #336732",
"m.	c #356A35",
"n.	c #366935",
"o.	c #356632",
"p.	c #3D6F36",
"q.	c #427639",
"r.	c #437639",
"s.	c #3F7137",
"t.	c #417438",
"u.	c #3E7238",
"v.	c #386935",
"w.	c #345F33",
"x.	c #335E33",
"y.	c #355F34",
"z.	c #356034",
"A.	c #2D572F",
"B.	c #2C5830",
"C.	c #2F5731",
"D.	c #325C34",
"E.	c #356136",
"F.	c #3A6B3A",
"G.	c #376936",
"H.	c #3A7038",
"I.	c #397037",
"J.	c #2B582E",
"K.	c #2B572C",
"L.	c #2F5B2E",
"M.	c #325E30",
"N.	c #2D592F",
"O.	c #2A542D",
"P.	c #29522C",
"Q.	c #306031",
"R.	c #336733",
"S.	c #386E37",
"T.	c #366936",
"U.	c #356933",
"V.	c #346532",
"W.	c #356432",
"X.	c #396A34",
"Y.	c #3A6A35",
"Z.	c #3F6E36",
"`.	c #407237",
" +	c #3C6F36",
".+	c #356433",
"++	c #325B30",
"@+	c #315830",
"#+	c #345D32",
"$+	c #335C31",
"%+	c #355D33",
"&+	c #315A31",
"*+	c #305A32",
"=+	c #305B31",
"-+	c #2F5831",
";+	c #2C5630",
">+	c #2B532F",
",+	c #2C542E",
"'+	c #2E5730",
")+	c #345E35",
"!+	c #376437",
"~+	c #366736",
"{+	c #396F37",
"]+	c #376D37",
"^+	c #346834",
"/+	c #2E5F30",
"(+	c #2A562C",
"_+	c #2E5B2E",
":+	c #315E33",
"<+	c #306032",
"[+	c #2C5B30",
"}+	c #2E6131",
"|+	c #336734",
"1+	c #386B35",
"2+	c #376935",
"3+	c #3C6C36",
"4+	c #427137",
"5+	c #3B6534",
"6+	c #396134",
"7+	c #386234",
"8+	c #3B6835",
"9+	c #3A6534",
"0+	c #396735",
"a+	c #366433",
"b+	c #336032",
"c+	c #366234",
"d+	c #3A6635",
"e+	c #386637",
"f+	c #335B33",
"g+	c #335D34",
"h+	c #2E5631",
"i+	c #2F5631",
"j+	c #2A4F2D",
"k+	c #346236",
"l+	c #386B38",
"m+	c #3B7038",
"n+	c #386B39",
"o+	c #346635",
"p+	c #316031",
"q+	c #B9B9B9",
"r+	c #306433",
"s+	c #326633",
"t+	c #346633",
"u+	c #3B6E36",
"v+	c #417239",
"w+	c #406D38",
"x+	c #3F6837",
"y+	c #3A6234",
"z+	c #385D32",
"A+	c #345C32",
"B+	c #385F32",
"C+	c #365D32",
"D+	c #365E32",
"E+	c #376635",
"F+	c #356032",
"G+	c #2F5730",
"H+	c #315B31",
"I+	c #356233",
"J+	c #396734",
"K+	c #3B6935",
"L+	c #376234",
"M+	c #355E34",
"N+	c #345E34",
"O+	c #325A32",
"P+	c #305631",
"Q+	c #2A4E2C",
"R+	c #2B502C",
"S+	c #345F35",
"T+	c #366537",
"U+	c #376C38",
"V+	c #326234",
"W+	c #306132",
"X+	c #326232",
"Y+	c #346433",
"Z+	c #3A6C34",
"`+	c #45773A",
" @	c #3D6B36",
".@	c #3A6133",
"+@	c #396033",
"@@	c #386332",
"#@	c #3A6335",
"$@	c #396434",
"%@	c #3D6C37",
"&@	c #305931",
"*@	c #2D582E",
"=@	c #305A30",
"-@	c #305A2F",
";@	c #366232",
">@	c #3A6636",
",@	c #345D33",
"'@	c #335B32",
")@	c #365F34",
"!@	c #2E552F",
"~@	c #305A31",
"{@	c #335D33",
"]@	c #325F33",
"^@	c #2D582F",
"/@	c #2E5D30",
"(@	c #336432",
"_@	c #3D6E36",
":@	c #44773A",
"<@	c #3D6B35",
"[@	c #396233",
"}@	c #375F32",
"|@	c #386433",
"1@	c #3A6736",
"2@	c #3D6C36",
"3@	c #3F6B37",
"4@	c #3C6637",
"5@	c #345C33",
"6@	c #315C30",
"7@	c #335E31",
"8@	c #376434",
"9@	c #396535",
"0@	c #396436",
"a@	c #376135",
"b@	c #376236",
"c@	c #386135",
"d@	c #325C33",
"e@	c #9E9E9E",
"f@	c #323232",
"g@	c #717171",
"h@	c #366634",
"i@	c #427339",
"j@	c #417038",
"k@	c #3B6635",
"l@	c #366032",
"m@	c #376333",
"n@	c #376534",
"o@	c #386634",
"p@	c #3A6835",
"q@	c #3C6836",
"r@	c #3E6737",
"s@	c #396034",
"t@	c #315630",
"u@	c #2F572F",
"v@	c #2E562E",
"w@	c #305D30",
"x@	c #366533",
"y@	c #345F31",
"z@	c #3D6C38",
"A@	c #3A6937",
"B@	c #376536",
"C@	c #386537",
"D@	c #2C542F",
"E@	c #2F5830",
"F@	c #335F34",
"G@	c #356333",
"H@	c #386534",
"I@	c #3D6A37",
"J@	c #396835",
"K@	c #3B6B35",
"L@	c #396634",
"M@	c #376235",
"N@	c #2D562E",
"O@	c #2F5C2F",
"P@	c #305C2F",
"Q@	c #315D30",
"R@	c #376634",
"S@	c #396937",
"T@	c #376837",
"U@	c #356636",
"V@	c #316233",
"W@	c #2F5D32",
"X@	c #2B522D",
"Y@	c #366633",
"Z@	c #346031",
"`@	c #3E6938",
" #	c #407038",
".#	c #3C6F37",
"+#	c #355F31",
"@#	c #345C31",
"##	c #2E572F",
"$#	c #294D2B",
"%#	c #2C572E",
"&#	c #2D592E",
"*#	c #315E30",
"=#	c #336231",
"-#	c #386936",
";#	c #396B37",
">#	c #336434",
",#	c #315C32",
"'#	c #356836",
")#	c #326334",
"!#	c #325D31",
"~#	c #325A2F",
"{#	c #406E37",
"]#	c #447339",
"^#	c #407239",
"/#	c #3B6F37",
"(#	c #386734",
"_#	c #346033",
":#	c #325A30",
"<#	c #28502C",
"[#	c #28532D",
"}#	c #2B562E",
"|#	c #386A36",
"1#	c #376835",
"2#	c #326333",
"3#	c #2F5D31",
"4#	c #325E32",
"5#	c #335F33",
"6#	c #356536",
"7#	c #386C37",
"8#	c #386A38",
"9#	c #305A2E",
"0#	c #34602F",
"a#	c #437137",
"b#	c #386834",
"c#	c #366334",
"d#	c #315D31",
"e#	c #2C5B31",
"f#	c #28552E",
"g#	c #2B562F",
"h#	c #2D5930",
"i#	c #2B552E",
"j#	c #326331",
"k#	c #316133",
"l#	c #2D5B31",
"m#	c #2D5A30",
"n#	c #326033",
"o#	c #346235",
"p#	c #3A6A38",
"q#	c #376637",
"r#	c #346135",
"s#	c #30582E",
"t#	c #376431",
"u#	c #406D37",
"v#	c #437037",
"w#	c #386533",
"x#	c #3C6B36",
"y#	c #386835",
"z#	c #336234",
"A#	c #326132",
"B#	c #29522D",
"C#	c #29542E",
"D#	c #2A532C",
"E#	c #2D5B30",
"F#	c #28512C",
"G#	c #2A552E",
"H#	c #396637",
"I#	c #315831",
"J#	c #305831",
"K#	c #315932",
"L#	c #3D6E37",
"M#	c #447439",
"N#	c #32572F",
"O#	c #3C6834",
"P#	c #3E6D36",
"Q#	c #3B6A34",
"R#	c #386532",
"S#	c #406F37",
"T#	c #427239",
"U#	c #437339",
"V#	c #3E6F36",
"W#	c #346232",
"X#	c #29552D",
"Y#	c #2A572E",
"Z#	c #2C582E",
"`#	c #2B562D",
" $	c #2A542C",
".$	c #27502B",
"+$	c #254C2A",
"@$	c #264D2B",
"#$	c #2A562E",
"$$	c #2B542D",
"%$	c #2E5A2F",
"&$	c #3A6638",
"*$	c #305730",
"=$	c #2A4A2C",
"-$	c #2D5530",
";$	c #325D33",
">$	c #3D6F37",
",$	c #42753A",
"'$	c #3F6D37",
")$	c #345E32",
"!$	c #376432",
"~$	c #3C6D36",
"{$	c #3B6D35",
"]$	c #386933",
"^$	c #386733",
"/$	c #3D6B34",
"($	c #437338",
"_$	c #3E6C36",
":$	c #2E5B30",
"<$	c #2C582F",
"[$	c #2A562D",
"}$	c #28522B",
"|$	c #2B572D",
"1$	c #27522B",
"2$	c #39613F",
"3$	c #366835",
"4$	c #386437",
"5$	c #2F5430",
"6$	c #2B4E2D",
"7$	c #2D5630",
"8$	c #3A6936",
"9$	c #3E6E36",
"0$	c #3B6A36",
"a$	c #376433",
"b$	c #335C30",
"c$	c #3B6834",
"d$	c #3A6833",
"e$	c #365F31",
"f$	c #365E31",
"g$	c #426F38",
"h$	c #48763B",
"i$	c #3E6736",
"j$	c #2E582E",
"k$	c #2F5A2F",
"l$	c #346333",
"m$	c #2B552D",
"n$	c #2D5C30",
"o$	c #306136",
"p$	c #43723E",
"q$	c #457639",
"r$	c #3C6E37",
"s$	c #356436",
"t$	c #356434",
"u$	c #2C562E",
"v$	c #346035",
"w$	c #294B2C",
"x$	c #2C532D",
"y$	c #335D31",
"z$	c #366332",
"A$	c #3B6B36",
"B$	c #345D2F",
"C$	c #396232",
"D$	c #3B6032",
"E$	c #406435",
"F$	c #3C6033",
"G$	c #426938",
"H$	c #426838",
"I$	c #3D6234",
"J$	c #355C32",
"K$	c #325A31",
"L$	c #315B30",
"M$	c #335F32",
"N$	c #346535",
"O$	c #376638",
"P$	c #48793B",
"Q$	c #43763A",
"R$	c #386837",
"S$	c #2B522C",
"T$	c #2E572E",
"U$	c #336030",
"V$	c #3B6A35",
"W$	c #3C6935",
"X$	c #3C6735",
"Y$	c #426A37",
"Z$	c #476E39",
"`$	c #466D38",
" %	c #47723A",
".%	c #436938",
"+%	c #3F6535",
"@%	c #396235",
"#%	c #376134",
"$%	c #366233",
"%%	c #376734",
"&%	c #376937",
"*%	c #396A38",
"=%	c #4A7B3C",
"-%	c #4A7C3C",
";%	c #45783A",
">%	c #41753A",
",%	c #3D7138",
"'%	c #2B512C",
")%	c #2E592D",
"!%	c #315E2F",
"~%	c #346132",
"{%	c #386632",
"]%	c #3D6E35",
"^%	c #426F36",
"/%	c #49793A",
"(%	c #48763A",
"_%	c #48753A",
":%	c #48723A",
"<%	c #4B763C",
"[%	c #4C773C",
"}%	c #456F39",
"|%	c #366333",
"1%	c #376533",
"2%	c #3B6D37",
"3%	c #3B6A38",
"4%	c #4B7C3C",
"5%	c #4A7A3B",
"6%	c #477639",
"7%	c #42773A",
"8%	c #366534",
"9%	c #3A6A34",
"0%	c #457337",
"a%	c #4E7E3D",
"b%	c #4D7C3D",
"c%	c #4E7A3F",
"d%	c #4A743B",
"e%	c #161616",
"f%	c #3F6D36",
"g%	c #427338",
"h%	c #417338",
"i%	c #447539",
"j%	c #447037",
"k%	c #3E6933",
"l%	c #447137",
"m%	c #3C6B35",
"n%	c #3E7137",
"o%	c #3F7238",
"p%	c #346431",
"q%	c #2E542D",
"r%	c #356030",
"s%	c #3D6A34",
"t%	c #457238",
"u%	c #4D783D",
"v%	c #49723A",
"w%	c #3A6A36",
"x%	c #356532",
"y%	c #376733",
"z%	c #366432",
"A%	c #44743A",
"B%	c #417138",
"C%	c #457538",
"D%	c #47763C",
"E%	c #487739",
"F%	c #3C6433",
"G%	c #3B6232",
"H%	c #406A35",
"I%	c #3E6F37",
"J%	c #346731",
"K%	c #396C37",
"L%	c #335A2F",
"M%	c #335B30",
"N%	c #396532",
"O%	c #3D6935",
"P%	c #436E37",
"Q%	c #426937",
"R%	c #457039",
"S%	c #396935",
"T%	c #325F30",
"U%	c #386832",
"V%	c #427139",
"W%	c #467439",
"X%	c #49783C",
"Y%	c #467339",
"Z%	c #3C6434",
"`%	c #3C6233",
" &	c #426D36",
".&	c #43743A",
"+&	c #3E6D37",
"@&	c #3B6C36",
"#&	c #366131",
"$&	c #565656",
"%&	c #325D30",
"&&	c #417039",
"*&	c #44733A",
"=&	c #447138",
"-&	c #3F6936",
";&	c #3D6434",
">&	c #3E6435",
",&	c #4A783A",
"'&	c #4A793B",
")&	c #48793A",
"!&	c #3F6E37",
"~&	c #336133",
"{&	c #335A31",
"]&	c #335E32",
"^&	c #2E5A2E",
"/&	c #386635",
"(&	c #3C6936",
"_&	c #417139",
":&	c #3B6433",
"<&	c #3C6032",
"[&	c #416836",
"}&	c #446C38",
"|&	c #477339",
"1&	c #457139",
"2&	c #45753A",
"3&	c #3F6F38",
"4&	c #386A37",
"5&	c #3A6A37",
"6&	c #325C31",
"7&	c #386334",
"8&	c #3B6234",
"9&	c #3F6536",
"0&	c #3E6536",
"a&	c #406B38",
"b&	c #41743A",
"c&	c #3C6C37",
"d&	c #336333",
"e&	c #316232",
"f&	c #2B532D",
"g&	c #2F5B2F",
"h&	c #396936",
"i&	c #355E32",
"j&	c #282828",
"k&	c #333333",
"l&	c #070707",
"m&	c #29512B",
"n&	c #2C552D",
"o&	c #345E33",
"p&	c #3C6335",
"q&	c #3D6536",
"r&	c #3F6937",
"s&	c #417036",
"t&	c #376335",
"u&	c #346434",
"v&	c #366535",
"w&	c #366134",
"x&	c #335931",
"y&	c #366033",
"z&	c #3A6334",
"A&	c #376032",
"B&	c #356033",
"C&	c #2F5B30",
"D&	c #326434",
"E&	c #336533",
"F&	c #315D32",
"G&	c #2C572F",
"H&	c #264C2B",
"I&	c #2A542B",
"J&	c #336131",
"K&	c #336031",
"L&	c #325E31",
"M&	c #316033",
"N&	c #326332",
"O&	c #2F5F30",
"P&	c #376B35",
"Q&	c #3D7339",
"R&	c #7F7F7F",
"S&	c #356133",
"T&	c #325B2F",
"U&	c #305C30",
"V&	c #2F5E30",
"W&	c #316030",
"X&	c #336332",
"Y&	c #326131",
"Z&	c #306332",
"`&	c #346335",
" *	c #386938",
".*	c #2A542E",
"+*	c #274E2B",
"@*	c #274F2C",
"#*	c #29532D",
"$*	c #29542B",
"%*	c #356732",
"&*	c #2F6332",
"**	c #2F6031",
"=*	c #356336",
"-*	c #376537",
";*	c #366336",
">*	c #356234",
",*	c #29532E",
"'*	c #27512C",
")*	c #2B562C",
"!*	c #2D592D",
"~*	c #376632",
"{*	c #407738",
"]*	c #3F7639",
"^*	c #3B6F36",
"/*	c #376C35",
"(*	c #346934",
"_*	c #326735",
":*	c #306734",
"<*	c #2E5D31",
"[*	c #2D5B2F",
"}*	c #A8A8A8",
"|*	c #366136",
"1*	c #325C30",
"2*	c #2D5830",
"3*	c #407538",
"4*	c #2E5C2F",
"5*	c #2F6132",
"6*	c #2F6232",
"7*	c #2E5F32",
"8*	c #366335",
"9*	c #305630",
"0*	c #2F562F",
"a*	c #315A2F",
"b*	c #356232",
"c*	c #2C562F",
"d*	c #356035",
"e*	c #305B2E",
"f*	c #356332",
"g*	c #376035",
"h*	c #355E33",
"i*	c #315731",
"j*	c #2F572E",
"k*	c #355F33",
"l*	c #2E5931",
"m*	c #356135",
"n*	c #325B33",
"o*	c #396635",
"p*	c #3A6B35",
"q*	c #2D572E",
"r*	c #365D34",
"s*	c #325931",
"t*	c #356334",
"u*	c #326032",
"v*	c #2E5830",
"w*	c #2F542F",
"x*	c #2D4E2D",
"y*	c #335930",
"z*	c #3A6435",
"A*	c #3E6F35",
"B*	c #396433",
"C*	c #315730",
"D*	c #315931",
"E*	c #386434",
"F*	c #3A6B37",
"G*	c #2F5930",
"H*	c #2E5630",
"I*	c #2E512E",
"J*	c #2D4D2E",
"K*	c #33582F",
"L*	c #3C6634",
"M*	c #406D39",
"N*	c #437239",
"O*	c #3F6C36",
"P*	c #3D6C35",
"Q*	c #2F5531",
"R*	c #2D522E",
"S*	c #355D32",
"T*	c #365F33",
"U*	c #335A32",
"V*	c #407138",
"W*	c #325C32",
"X*	c #2B502E",
"Y*	c #2D522F",
"Z*	c #2D512E",
"`*	c #355B34",
" =	c #406C36",
".=	c #416B38",
"+=	c #446F38",
"@=	c #3B6533",
"#=	c #3E6A35",
"$=	c #345B32",
"%=	c #44713A",
"&=	c #47773C",
"*=	c #437238",
"==	c #3C6837",
"-=	c #2B522E",
";=	c #2B512E",
">=	c #3D6838",
",=	c #446F39",
"'=	c #4A763B",
")=	c #48743A",
"!=	c #3E6B35",
"~=	c #365E33",
"{=	c #3A6836",
"]=	c #406C38",
"^=	c #48763C",
"/=	c #477338",
"(=	c #3E6A37",
"_=	c #427037",
":=	c #436D37",
"<=	c #396333",
"[=	c #376737",
"}=	c #447239",
"|=	c #4A773B",
"1=	c #477439",
"2=	c #3D6936",
"3=	c #375E31",
"4=	c #386131",
"5=	c #355D31",
"6=	c #2D542E",
"7=	c #284D2C",
"8=	c #2A522D",
"9=	c #3B6536",
"0=	c #416E39",
"a=	c #386937",
"b=	c #356132",
"c=	c #406E36",
"d=	c #436F37",
"e=	c #416E38",
"f=	c #46753B",
"g=	c #315E31",
"h=	c #345C30",
"i=	c #31592F",
"j=	c #335B31",
"k=	c #43793C",
"l=	c #41753B",
"m=	c #3C7038",
"n=	c #3A6735",
"o=	c #44753A",
"p=	c #396736",
"q=	c #30582F",
"r=	c #2E552E",
"s=	c #2D532E",
"t=	c #2E562F",
"u=	c #2B542E",
"v=	c #2D5A2E",
"w=	c #3A6D37",
"x=	c #386C35",
"y=	c #376332",
"z=	c #396534",
"A=	c #3B6735",
"B=	c #40713A",
"C=	c #3D6E38",
"D=	c #3D7137",
"E=	c #2C532E",
"F=	c #2E5F31",
"G=	c #28502D",
"H=	c #254A29",
"I=	c #26512C",
"J=	c #336532",
"K=	c #366933",
"L=	c #2F5D2F",
"M=	c #2F552F",
"N=	c #386636",
"O=	c #305C32",
"P=	c #306232",
"Q=	c #356936",
"R=	c #356837",
"S=	c #316032",
"T=	c #386737",
"U=	c #366834",
"V=	c #366735",
"W=	c #305D31",
"X=	c #356835",
"Y=	c #326534",
"Z=	c #316231",
"`=	c #336634",
"  . + @ # $ % & * = - ; > , ' ) ! ~ { ] . ^ / ( _ : < [ } | 1 2 3 4 5 6 6 7 8 9 0 0 a b c d e f ",
"g h i j k l m n o p q r r s t u v w x y z A B C D / E F G H I J K L M ^ N O = P Q R S T T U V W ",
"X Y Z `  ...+.@.#.$.%.&.*.) =.-.;.>.% Y ,.Q '.B ).!.~.{.].^./.(._.:.v <.[.}.|.1.2.3.a 4.4.T 5.6.",
"7.8.9.0.a.b.c.C d.e.Q f.g.g.g.g.g.g.h.i.j.k.k.l.m.n.E o.p.q.r.s.t.u.v.f.w.x.y.1.z.p A.9 4.4.a B.",
"C.D.E.F.G.H.I.n.J.K.L.M.g.g.g.g.g.g.N.O.P.Q.R.S.T.U.V.W.X.J Y.# Z.`. +.+++8 @+#+$+%+&+*+=+-+;+>+",
",+'+)+!+~+{+]+^+k./+(+_+g.g.g.g.g.g.:+<+[+}+|+M 1+2+2 3+4+5+6+7+8+9+0+a+b+8 w.z.c+d+c+e+f+g+h+i+",
"#.j+C.k+l+m+n+o+p+g.g.g.q+q+q+q+q+q+g.g.g.r+s+t+u+-.v+w+x+y+z+A+B+C+D+E+F+G+h.H+I+J+K+L+M+N+O+P+",
"Q+R+P S+T+l+U+V+'.g.g.g.q+q+q+q+q+q+g.g.g.W+X+Y+Z+t.`+ @.@+@z+B+@@#@$@3+%@&@*@=@-@;@>@L+,@'@)@!@",
"~@A.~@{@S+S+]@^@0 g.g.g.q+q+q+q+q+q+g.g.g./@(@t =._@:@<@[@B+}@|@;@1@2@3@4@5@Y 6@7@8@9@0@a@b@c@N+",
"d@~@A.~@p P g.g.g.q+q+q+e@e@e@f@f@f@g@g@g@f@f@f@h@3+i@j@k@l@m@n@o@p@q@r@s@t@u@v@w@x@y@z@A@B@C@= ",
"9   ,.D@E@F@g.g.g.q+q+q+e@e@e@f@f@f@g@g@g@f@f@f@G@H@q@I@q@Y.Y.J@$ K@L@D+M@}.i.N@O@P@Q@R@S@T@U@z ",
"V@W@N.X@&@p g.g.g.q+q+q+e@e@e@f@f@f@g@g@g@f@f@f@Y@Z@L@`@ #p. ..#H@m@+#@#x.##X@$#%#&#*#=#-#;#T.>#",
"c 6.a ,#z . g.g.g.q+q+q+f@f@f@'#>#)#f@f@f@f@f@f@!#~#{#]#^#-./#u+(#_#:#H+z Q >+<#[#}#%#X |#1#1#2#",
"3#3#W 4#5#6#g.g.g.q+q+q+f@f@f@7#8#>#f@f@f@f@f@f@9#0#a#]#v+$ b#o@c#F+7@6@d#g e#f#g#h#i#/ j#( i k#",
"l#m#W =+n#o#g.g.g.q+q+q+f@f@f@p#q#r#f@f@f@f@f@f@s#t#u#v#{#].Y.w#2@p@x#y#z#z A#B#C#<#}#N.D#N.S E#",
"F#G#b 3#T g g.g.g.e@e@e@g.g.g.H#N+I#J#K#o@L#M#d+N#L+m@O#P#s.Q#R#S#T#U#V#h@W#A#J.X#Y#Z#`# $j..$+$",
"@$#$%#$$%$0 g.g.g.e@e@e@g.g.g.&$*$=$-$;$>$,$'$9@F+q )$!$~${$]$^$/$($S#_$F+% ,.B :$N.<$[$}$|$1$[$",
"2$7 A#3$A A.g.g.g.e@e@e@g.g.g.4$5$6$7$5#8$T#9$0$Y.a+a$b$c$d$^$e$f$g$h$i$'@:#j$k$l$B w@_ m$J.n$o$",
"p$q$r$s$t$u$g.g.g.e@e@e@g.g.g.v$G+w$x$Q y$z$^$X.r$A$Y.|@B$C$D$E$F$G$H$I$J$K$L$M$W#*.1 h@N$>#h O$",
"q$P$Q$! R$E+g.g.g.e@e@e@g.g.g.o#~@A.S$T$P@-@U$b#A$p@V$W$X$x+Y$Z$`$ %.%+%@%#%$%8 7@y#%%G@%%&%*%L#",
"=%-%;%>%_.,%g.g.g.e@e@e@g.g.g.1 W#& '%)%!%j$P@~%a${%]%^%/%(%_%:%<%[%}%i$6+9@a$0+|%1%^$$ 2%r$3%4%",
"5%6%($(.7%..g.g.g.g@g@g@g.g.g.2+t W.g.g.g.f@f@f@8%F+9%0%a%b%c%[%d%e%e%e%p@8$n@n@n@H@f%g%h%_@i%6%",
"j%k%l%m%n%o%g.g.g.g@g@g@g.g.g.p%s + g.g.g.f@f@f@!#q%r%s%t%_%[%u%v%e%e%e%w%x%y%a+z%m%A%B%C%D%5%E%",
"F%G%H%} I%=.g.g.g.g@g@g@g.g.g.J%K%h@g.g.g.f@f@f@d#$.L%M%N%O%P%Q%R%e%e%e%S%x%T%Z@U%V$V%A%W%X%Y%Z%",
"`% &B%.&+&@&f@f@f@g@g@g@e@e@e@g.g.g.e@e@e@f@f@f@A#=@A+$.F+#&e%e%e%$&$&$&e%e%e%%&a$p@&&*&=&-&;&>&",
",&'&)&)&!&0+f@f@f@g@g@g@e@e@e@g.g.g.e@e@e@f@f@f@Y+~&{&8 ]&p e%e%e%$&$&$&e%e%e%^&1 /&(&_&:&<&[&}&",
"|&1&2&M#3&$%f@f@f@g@g@g@e@e@e@g.g.g.e@e@e@f@f@f@4&5&@#K$K$}.e%e%e%$&$&$&e%e%e%-@6&M$5&7&8&9&0&Y$",
"a&]#v+b&c&]&4#d&e&f@f@f@g@g@g@e@e@e@f@f@f@f&g&1 h&M@i&e%e%e%j&j&j&k&k&k&l&l&l&m&n&Y 2.o&6+p&q&r&",
"k@s&} A$t&> :$U f f@f@f@g@g@g@e@e@e@f@f@f@g&Y+u&v&w&x&e%e%e%j&j&j&k&k&k&l&l&l&m&O.h#i.L$$+y&|%z&",
"A&;@B&6&L$C&B D&E&f@f@f@g@g@g@e@e@e@f@f@f@F&Y+4#6&N+2.e%e%e%j&j&j&k&k&k&l&l&l&G&H&d.|$I&k$!#Y 7&",
")$J&8 K&4#d#L&M&N&O&P&Q&f@f@f@f@f@f@Z#C 4.C&*._#e%e%e%k&k&k&$&$&$&R&R&R&j&j&j&l&l&l&g i.!#%.B&S&",
"T&L$&.U&=@C&d#Z#V&W&X&Y&f@f@f@f@f@f@Z&).A A z ]&e%e%e%k&k&k&$&$&$&R&R&R&j&j&j&l&l&l&`& *R$F@p T%",
"y$&.U&C&S .*+*@*#*$*W&%*f@f@f@f@f@f@&***e&  & 8 e%e%e%k&k&k&$&$&$&R&R&R&j&j&j&l&l&l&=*-*t&;*; b+",
">*x A#/ N.i#,*'*<#)*!*~*{*]*^*/*(*_*:*<*[*e%e%e%j&j&j&k&k&k&}*}*}*j&j&j&e%e%e%l&l&l&{@x.|*,@x.& ",
"1*a+l$'.:$6.2*G&^@J&%.b#3*u+o.R.4*5*6*7*V e%e%e%j&j&j&k&k&k&}*}*}*j&j&j&e%e%e%l&l&l&& 8*; 9*9*0*",
"a*b*t$1 [.0 m#m#c*]@d*6&:#b*e*f*X&W+W+U&C e%e%e%j&j&j&k&k&k&}*}*}*j&j&j&e%e%e%l&l&l&M+g*h*i*I#j*",
"A+k*x ]&%.:$<*l*2*3.m*n*@+p y$o*J@l$p*(#q*e%e%e%$&$&$&R&R&R&j&j&j&e%e%e%e%e%e%j&j&j&l&l&l&r*'@s*",
")$o@/&t*%.~&u*a v*&+O+P w*x*y*z*|@c$A*B*u@e%e%e%$&$&$&R&R&R&j&j&j&e%e%e%e%e%e%j&j&j&l&l&l&i*C*D*",
"w&E*w&- r#F*h&= G*S H*'@I*J*K*L*M*N*O*P*w.e%e%e%$&$&$&R&R&R&j&j&j&e%e%e%e%e%e%j&j&j&l&l&l&Q*R**$",
"z.S*T*U*p@V*3&o W*'+X*Y*Z*`* =|&.=+=@=#=h*e%e%e%$&$&$&k&k&k&e%e%e%j&j&j&k&k&k&$&$&$&l&l&l&x&$=h*",
"; y&L@%=&=*===L+}.-=X@;=I#>=,='=)=O*!=i&K$e%e%e%$&$&$&k&k&k&e%e%e%j&j&j&k&k&k&$&$&$&l&l&l&C+h*~=",
"y#{=]=^=X%/=(=8+> N.2*3.{@K+_=P%:=G%<=:###e%e%e%$&$&$&k&k&k&e%e%e%j&j&j&k&k&k&$&$&$&l&l&l&==c+o&",
"[=S&}=|=1=t%*&'$Q@Q C&G*6&m@_$2=3=4=5=q 6=7=8=N.l&l&l&j&j&j&e%e%e%l&l&l&l&l&l&l&l&l&y.9=0=>%a=i ",
"t b=c=t%d=e=f=.&w%g=1#| 8 y$F+h=i=j=q 6=S$%#^@N.l&l&l&j&j&j&e%e%e%l&l&l&l&l&l&l&l&l&2+,%k=l=m=n.",
"J&(#n='$Z.!&.&o=L#w u+y#p=q=j*L$k$r=s=t=u=m$`#v=l&l&l&j&j&j&e%e%e%l&l&l&l&l&l&l&l&l&<.w=,%,%x=v=",
"*.a$y=z=o*A=I@B=C=D=/#l O {@Q ~%P@E=> Y X 0 C '.%#[*F=l&l&l&l&l&l&:$m#B.G=F#H=I=[$).g=X+J=K=u L=",
"B a+1%i&j=p M=m*a=! 8$N=X w@, K&C&B *.,.& O=3#( '.: P=l&l&l&l&l&l&Q=R=S=A#J.1$1$Z#m#G&m#C Q.M E ",
"M&N$8$S%0$a$&+##d@8*A@T=h.g&  Y+3$U=V=z A W=W=w@g=Y&X&l&l&l&l&l&l&/ h X=V@:$h#^@0 S l*b 3#Y=Z=`="};
