/* XPM */
static char * mob_xpm[] = {
"48 48 238 2",
"  	c #00B601",
". 	c #01B500",
"+ 	c #007501",
"@ 	c #007200",
"# 	c #007000",
"$ 	c #009700",
"% 	c #009802",
"& 	c #03940B",
"* 	c #909090",
"= 	c #BBBBBB",
"- 	c #67FF6F",
"; 	c #69FF6A",
"> 	c #67FF6A",
", 	c #3B903B",
"' 	c #39913D",
") 	c #66FE6E",
"! 	c #00B602",
"~ 	c #02B500",
"{ 	c #007900",
"] 	c #007400",
"^ 	c #017400",
"/ 	c #007300",
"( 	c #009900",
"_ 	c #8D9192",
": 	c #8C9290",
"< 	c #8D928C",
"[ 	c #BCBDB5",
"} 	c #BBBDB8",
"| 	c #BBBDBA",
"1 	c #6BFF69",
"2 	c #6AFE6C",
"3 	c #69FE6E",
"4 	c #39913A",
"5 	c #339238",
"6 	c #007100",
"7 	c #017304",
"8 	c #017206",
"9 	c #017302",
"0 	c #017200",
"a 	c #007706",
"b 	c #09B403",
"c 	c #00BA01",
"d 	c #009903",
"e 	c #089302",
"f 	c #398E39",
"g 	c #378F39",
"h 	c #409540",
"i 	c #006C00",
"j 	c #006B00",
"k 	c #006A00",
"l 	c #4EB750",
"m 	c #50C14F",
"n 	c #50C14D",
"o 	c #52C04F",
"p 	c #317431",
"q 	c #327532",
"r 	c #377532",
"s 	c #928F96",
"t 	c #918F92",
"u 	c #918F90",
"v 	c #007404",
"w 	c #05B500",
"x 	c #3D9040",
"y 	c #006B01",
"z 	c #4DC250",
"A 	c #4FC14F",
"B 	c #2C732F",
"C 	c #909092",
"D 	c #019704",
"E 	c #009A00",
"F 	c #1D291F",
"G 	c #232522",
"H 	c #242422",
"I 	c #2A1F27",
"J 	c #2B2028",
"K 	c #282129",
"L 	c #5EE861",
"M 	c #5CE95F",
"N 	c #5BEA5D",
"O 	c #4DC152",
"P 	c #4DC24D",
"Q 	c #4EC34E",
"R 	c #202528",
"S 	c #252326",
"T 	c #242426",
"U 	c #242424",
"V 	c #282226",
"W 	c #272226",
"X 	c #262128",
"Y 	c #B6BCBA",
"Z 	c #2B211F",
"` 	c #232323",
" .	c #20281D",
"..	c #5FE75F",
"+.	c #5EE85D",
"@.	c #50C250",
"#.	c #1E2919",
"$.	c #BABABA",
"%.	c #1A2B1B",
"&.	c #5EE95C",
"*.	c #5FE85C",
"=.	c #54BE4F",
"-.	c #4FC24D",
";.	c #53C04D",
">.	c #54C14E",
",.	c #1E281F",
"'.	c #26221F",
").	c #B8BCBB",
"!.	c #B8BCBD",
"~.	c #000000",
"{.	c #000104",
"].	c #3B913A",
"^.	c #1E4D1F",
"/.	c #1F4D1F",
"(.	c #040003",
"_.	c #262827",
":.	c #399339",
"<.	c #030002",
"[.	c #019702",
"}.	c #1D2A16",
"|.	c #252324",
"1.	c #040000",
"2.	c #050000",
"3.	c #000600",
"4.	c #3C8F3F",
"5.	c #3B8E3E",
"6.	c #3B8E3C",
"7.	c #369436",
"8.	c #1E4E1C",
"9.	c #1F4C21",
"0.	c #020003",
"a.	c #010101",
"b.	c #010100",
"c.	c #262825",
"d.	c #379535",
"e.	c #36933A",
"f.	c #38923A",
"g.	c #3D8F3B",
"h.	c #3A933F",
"i.	c #0AAD14",
"j.	c #00B800",
"k.	c #00B700",
"l.	c #59E560",
"m.	c #5DE662",
"n.	c #5BE760",
"o.	c #66E35B",
"p.	c #232520",
"q.	c #212620",
"r.	c #292428",
"s.	c #232321",
"t.	c #B6B6B6",
"u.	c #BCBCBC",
"v.	c #B9BEB8",
"w.	c #056906",
"x.	c #056B07",
"y.	c #02B504",
"z.	c #03B603",
"A.	c #04B505",
"B.	c #01B605",
"C.	c #01B703",
"D.	c #02B804",
"E.	c #399238",
"F.	c #03B306",
"G.	c #61E762",
"H.	c #65E463",
"I.	c #BCBABB",
"J.	c #006B03",
"K.	c #02B501",
"L.	c #00B701",
"M.	c #5FE763",
"N.	c #5FE761",
"O.	c #5DE859",
"P.	c #1D4F1C",
"Q.	c #224B21",
"R.	c #224C1E",
"S.	c #292524",
"T.	c #272320",
"U.	c #242329",
"V.	c #272324",
"W.	c #00B605",
"X.	c #BDBCB8",
"Y.	c #BBBABF",
"Z.	c #BCBABF",
"`.	c #62E561",
" +	c #1D5018",
".+	c #272528",
"++	c #00B501",
"@+	c #B5C1B3",
"#+	c #62E45C",
"$+	c #61E55B",
"%+	c #67E963",
"&+	c #1D4F1A",
"*+	c #201E21",
"=+	c #222222",
"-+	c #00B803",
";+	c #B7BDB1",
">+	c #BDB8BE",
",+	c #BBBDBC",
"'+	c #3D8D44",
")+	c #3C913C",
"!+	c #010002",
"~+	c #020202",
"{+	c #000004",
"]+	c #3A8E39",
"^+	c #036C03",
"/+	c #016A01",
"(+	c #3B8F3A",
"_+	c #BBBCB7",
":+	c #B5BFB7",
"<+	c #B8BDC0",
"[+	c #389336",
"}+	c #369434",
"|+	c #399435",
"1+	c #010000",
"2+	c #000100",
"3+	c #000200",
"4+	c #000300",
"5+	c #030000",
"6+	c #070000",
"7+	c #000002",
"8+	c #080000",
"9+	c #37903C",
"0+	c #046A04",
"a+	c #006F00",
"b+	c #5EE85F",
"c+	c #60E864",
"d+	c #02B502",
"e+	c #242527",
"f+	c #212622",
"g+	c #60E65F",
"h+	c #00B500",
"i+	c #02B600",
"j+	c #262425",
"k+	c #006C03",
"l+	c #63E664",
"m+	c #222627",
"n+	c #5FE85D",
"o+	c #262523",
"          . + @ @ @ @ # $ % % % % & * * * * * * = = = = = = - ; ; ; ; > , , , , , ' @ @ @ @ @ @ ",
"          . + @ @ @ @ # $ % % % % & * * * * * * = = = = = = ) ; ; ; ; > , , , , , ' @ @ @ @ @ @ ",
"          . + @ @ @ @ # $ % % % % & * * * * * * = = = = = = ) ; ; ; ; > , , , , , ' @ @ @ @ @ @ ",
"          . + @ @ @ @ # $ % % % % & * * * * * * = = = = = = ) ; ; ; ; > , , , , , ' @ @ @ @ @ @ ",
"          . + @ @ @ @ # $ % % % % & * * * * * * = = = = = = ) ; ; ; ; > , , , , , ' @ @ @ @ @ @ ",
"! !     ! ~ { ] ] ^ ^ / % % % % % ( _ _ : : _ < [ } | | } } 1 2 2 2 2 3 4 4 4 4 4 5 6 7 8 7 9 9 ",
"0 0 0 0 0 a b c c c c c d % % % % e f f g g f h i j k k j k l m m n n o p q p p p r s t t u u u ",
"@ @ @ @ @ v w           d % % % % ( , , , , , x i y y y y y z A A A A m p p p p p B C * * * * * ",
"@ @ @ @ @ v w           d % % % % ( , , , , , x i y y y y y z A A A A m p p p p p B C * * * * * ",
"@ @ @ @ @ v w           d % % % % ( , , , , , x i y y y y y z A A A A m p p p p p B C * * * * * ",
"@ @ @ @ @ v w           d % % % % ( , , , , , x i y y y y y z A A A A m p p p p p B C * * * * * ",
"@ @ @ @ @ v w           d % % % % ( , , , , , x i y y y y y z A A A A m p p p p p B C * * * * * ",
"D D % % D E F G G H H G I J J J J K L L M M L N O P P P P Q R S S T T U V W W V V X Y = = = = = ",
"% % % % % ( Z U U U U U ` U U U U  ...........+.A A A A A @.#.U U U U U U U U U U ` $.= = = = = ",
"% % % % % ( Z U U U U U ` U U U U  ...........+.A A A A A @.#.U U U U U U U U U U ` $.= = = = = ",
"% % % % % ( Z U U U U U ` U U U U  ...........+.A A A A A @.#.U U U U U U U U U U ` $.= = = = = ",
"% % % % % ( Z U U U U U ` U U U U  ...........+.A A A A A @.#.U U U U U U U U U U ` $.= = = = = ",
"% % % % % ( Z U U U U U ` U U U U %.+.+.&.&.+.*.=.-.m =.;.>.,.U U U U U U U U U U '.$.).!.!.!.!.",
"% % % % % ( Z U U U U U ~.~.~.~.~.{., , , , , ].^./././././.(.~.~.~.~.~.U U U U U _.:., , , , , ",
"% % % % % ( Z U U U U U ~.~.~.~.~.{., , , , , ].^./././././.<.~.~.~.~.~.U U U U U _.:., , , , , ",
"% % % % % ( Z U U U U U ~.~.~.~.~.{., , , , , ].^./././././.<.~.~.~.~.~.U U U U U _.:., , , , , ",
"% % % % % ( Z U U U U U ~.~.~.~.~.{., , , , , ].^./././././.<.~.~.~.~.~.U U U U U _.:., , , , , ",
"% % % % % ( Z U U U U U ~.~.~.~.~.{., , , , , ].^./././././.<.~.~.~.~.~.U U U U U _.:., , , , , ",
"% % % % % [.}.|.|.|.|.|.1.2.2.2.2.3.4.5.6.6.5.7.8.9././././.0.a.a.a.a.b.G G G G G c.d.e.f.4 f.f.",
"g.g.g.g.g.h.i.j.j.k.k.j.l.m.m.n.n.o.p.p.q.q.p.r.` ` s.s.s.s.t.u.u.u.u.v.w.w.w.w.w.x.y.z.A.B.C.D.",
", , , , , E.F.          G.........H.U U U U U ` U U U U U U $.= = = = I.y y y y y J.k.          ",
", , , , , E.F.          G.........H.U U U U U ` U U U U U U $.= = = = I.y y y y y J.k.          ",
", , , , , E.F.          G.........H.U U U U U ` U U U U U U $.= = = = I.y y y y y J.k.          ",
", , , , , E.F.        K.G.........H.U U U U U ` U U U U U U $.= = = = I.y y y y y y L.          ",
", , , , , E.F.        K.G.........H.U U U U U ` U U U U U U $.= = = = I.y y y y y y L.          ",
"M.M.N.N.M.O.P.Q.Q.Q.Q.R.S.T.T.T.T.U.~.~.~.~.~.~.~.~.~.~.~.~.U U U U U V.! ! ! ! ! W.X.Y.Z.Z.Y.Y.",
"..........`. +/././././..+U U U U U ~.~.~.~.~.~.~.~.~.~.~.~.U U U U U S           ++@+= = = = = ",
"..........`. +/././././..+U U U U U ~.~.~.~.~.~.~.~.~.~.~.~.U U U U U S           ++@+= = = = = ",
"..........`. +/././././..+U U U U U ~.~.~.~.~.~.~.~.~.~.~.~.U U U U U S           ++@+= = = = = ",
"..........`. +/././././..+U U U U U ~.~.~.~.~.~.~.~.~.~.~.~.U U U U U S           ++@+= = = = = ",
"#+#+$+$+#+%+&+9.9.9.9.9.*+=+=+=+=+=+~.~.~.~.~.~.~.~.~.~.~.~.` =+=+=+=+=+k.k.k.k.k.-+;+>+>+>+>+>+",
"= = = = = ,+'+, , , , )+!+~.~.~.~.~.~.~.~.~.~.~.~.~.~.~.~.~.~+~.~.~.~.{+, , , , , ]+^+/+/+/+/+/+",
"= = = = = ,+'+, , , , )+!+~.~.~.~.~.~.~.~.~.~.~.~.~.~.~.~.~.~+~.~.~.~.{+, , , , , (+/+y y y y y ",
"= = = = = ,+'+, , , , )+!+~.~.~.~.~.~.~.~.~.~.~.~.~.~.~.~.~.~+~.~.~.~.{+, , , , , (+/+y y y y y ",
"= = = = = ,+'+, , , , )+!+~.~.~.~.~.~.~.~.~.~.~.~.~.~.~.~.~.~+~.~.~.~.{+, , , , , (+/+y y y y y ",
"= = = = = ,+'+, , , , )+!+~.~.~.~.~.~.~.~.~.~.~.~.~.~.~.~.~.~+~.~.~.~.{+, , , , , (+/+y y y y y ",
"_+_+:+:+_+<+[+}+}+}+}+|+1+~.~.~.~.!+2+2+3+3+4+5+6+7+7+7+7+7+8+~.~.~.~.~., , , , , 9+0+# a+a+# # ",
"b+b+b+b+b+c+d+    K.K.K.e+U U U U f+b+b+b+b+..g+h+i+i+i+i+i+j+U U U U W y y y y y k+j.          ",
"..........l+L.          m+U U U U  ...........n+h+          o+U U U U |.y y y y y J.k.          ",
"..........l+L.          m+U U U U  ...........n+h+          o+U U U U |.y y y y y J.k.          ",
"..........l+L.          m+U U U U  ...........n+h+          o+U U U U |.y y y y y J.k.          ",
"..........l+L.          m+U U U U  ...........n+h+          o+U U U U |.y y y y y J.k.          ",
"..........l+L.          m+U U U U  ...........n+h+          o+U U U U |.y y y y y J.k.          "};
